<?xml version="1.0" standalone="no"?>
<!DOCTYPE svg PUBLIC "-//W3C//DTD SVG 20010904//EN"
 "http://www.w3.org/TR/2001/REC-SVG-20010904/DTD/svg10.dtd">
<svg version="1.0" xmlns="http://www.w3.org/2000/svg"
 width="500.000000pt" height="500.000000pt" viewBox="0 0 500.000000 500.000000"
 preserveAspectRatio="xMidYMid meet">
<metadata>
Created by potrace 1.14, written by Peter Selinger 2001-2017
</metadata>
<g transform="translate(0.000000,500.000000) scale(0.100000,-0.100000)"
fill="#000000" stroke="none">
<path d="M2378 4595 c-1 -2 -32 -6 -67 -9 -232 -21 -496 -99 -736 -216 -414
-202 -737 -517 -925 -905 -57 -117 -113 -269 -125 -335 -3 -19 -8 -36 -10 -40
-2 -4 -7 -20 -9 -36 -3 -16 -8 -40 -11 -54 -11 -51 -16 -97 -21 -185 l-6 -90
66 -2 c61 -1 66 0 67 20 6 214 72 473 172 672 159 319 404 575 739 773 81 47
105 60 221 111 173 77 429 141 635 158 142 13 466 4 493 -12 4 -3 24 -7 45
-10 80 -10 266 -60 349 -94 296 -122 535 -299 717 -531 32 -41 62 -80 66 -85
18 -23 109 -183 131 -230 88 -189 149 -402 167 -585 3 -30 7 -70 9 -87 4 -30
-8 -46 -17 -24 -8 21 -285 304 -305 312 -29 11 -67 -6 -81 -35 -15 -34 4 -65
103 -169 50 -51 146 -153 214 -225 153 -163 153 -163 256 -66 172 162 342 323
369 348 54 49 33 126 -35 126 -21 0 -49 -21 -116 -84 -196 -186 -248 -234
-249 -233 -1 1 -5 34 -8 72 -10 110 -25 226 -31 234 -1 3 -6 22 -9 41 -22 141
-119 393 -216 565 -23 41 -126 191 -144 211 -6 7 -26 30 -44 52 -142 175 -369
350 -592 457 -177 85 -345 135 -610 180 -38 7 -446 16 -452 10z"/>
<path d="M1118 3772 l-36 -3 135 -212 c75 -117 182 -284 238 -372 56 -88 166
-260 244 -383 l142 -222 -60 -93 c-33 -50 -119 -182 -190 -292 -72 -110 -153
-236 -181 -280 -28 -44 -122 -190 -210 -325 -88 -135 -156 -248 -151 -253 4
-4 171 -6 371 -5 l363 3 19 30 c10 17 21 36 24 43 19 38 315 507 321 507 3 0
14 -27 24 -60 38 -134 108 -290 192 -433 47 -80 49 -83 70 -69 12 8 110 72
217 142 107 71 199 131 203 135 4 4 -8 35 -28 69 -19 35 -35 65 -35 67 0 2
-11 27 -24 56 -41 89 -56 128 -77 212 -27 105 -27 102 -34 190 l-7 76 301 0
301 0 1 -22 c0 -13 0 -161 0 -330 0 -234 3 -308 12 -309 55 -5 524 -3 532 2 7
5 10 276 9 781 l0 773 -276 3 -276 2 1 -210 c1 -134 -2 -210 -8 -211 -5 -1
-130 -2 -276 -3 l-266 -1 15 35 c76 186 159 290 282 354 165 87 244 99 638
100 149 0 252 4 252 9 0 9 -57 229 -86 332 -15 52 -18 62 -29 107 l-7 28 -262
-5 c-143 -2 -272 -6 -286 -9 -14 -3 -52 -8 -84 -11 -140 -14 -350 -83 -451
-147 -179 -116 -322 -265 -419 -441 l-38 -68 -88 150 c-48 82 -90 155 -94 162
-4 8 -12 23 -19 34 -24 40 -101 170 -111 190 -13 23 -98 168 -103 174 -4 5
-637 8 -695 3z"/>
<path d="M280 2208 c-121 -122 -225 -229 -230 -238 -26 -48 18 -99 78 -91 7 1
87 76 178 167 90 90 166 164 167 164 2 0 3 -15 3 -32 1 -43 13 -140 25 -203 6
-27 13 -61 15 -75 11 -52 54 -198 79 -264 162 -429 490 -797 890 -998 193 -97
465 -174 685 -194 143 -13 491 -6 519 10 3 2 26 7 51 10 25 3 56 8 70 11 14 3
41 8 60 11 52 9 248 69 337 105 647 256 1117 794 1242 1424 22 111 38 281 32
341 -1 11 -114 15 -124 4 -2 -3 -7 -48 -11 -101 -7 -105 -9 -116 -32 -234 -43
-225 -184 -526 -329 -704 -233 -286 -536 -502 -879 -626 -91 -33 -205 -67
-266 -79 -14 -2 -48 -9 -77 -15 -28 -6 -78 -13 -110 -16 -32 -3 -76 -8 -97
-11 -50 -7 -283 -7 -356 0 -232 22 -483 95 -676 196 -79 42 -198 114 -214 130
-3 3 -21 17 -40 31 -125 94 -265 244 -359 383 -138 203 -245 468 -276 681 -4
22 -8 47 -10 55 -2 8 -7 44 -11 80 l-6 65 159 -156 c87 -86 165 -159 174 -162
30 -10 77 22 82 56 5 30 -7 44 -227 265 -204 205 -235 232 -263 232 -28 0 -58
-26 -253 -222z"/>
</g>
</svg>
