<svg width="500" height="500" viewBox="0 0 500 500" fill="none" xmlns="http://www.w3.org/2000/svg">
<g clip-path="url(#clip0_20_17)">
<path d="M261.922 46.7555L261.731 53.4194L261.922 46.7555ZM436.661 243.214C439.189 245.891 443.408 246.011 446.085 243.483L489.708 202.288C492.384 199.76 492.505 195.54 489.977 192.863C487.449 190.186 483.23 190.066 480.553 192.594L441.777 229.212L405.159 190.437C402.631 187.76 398.412 187.639 395.735 190.167C393.058 192.695 392.937 196.914 395.465 199.591L436.661 243.214ZM59.9973 227.722C62.9382 124.928 157.459 50.4362 261.731 53.4194L262.112 40.0915C152.002 36.9413 49.862 115.751 46.6694 227.34L59.9973 227.722ZM261.731 53.4194C365.163 56.3786 437.808 134.855 434.844 238.446L448.172 238.827C451.342 128.035 373.063 43.2658 262.112 40.0915L261.731 53.4194Z" fill="#EBAF00"/>
<path d="M58.0474 258.619C55.4439 256.016 51.2228 256.016 48.6193 258.619L6.19292 301.046C3.58942 303.649 3.58942 307.87 6.19292 310.474C8.79641 313.077 13.0175 313.077 15.621 310.474L53.3334 272.761L91.0457 310.474C93.6492 313.077 97.8703 313.077 100.474 310.474C103.077 307.87 103.077 303.649 100.474 301.046L58.0474 258.619ZM435 263.333C435 366.169 342.648 443.333 238.333 443.333V456.667C348.489 456.667 448.333 374.968 448.333 263.333H435ZM238.333 443.333C134.859 443.333 60 366.966 60 263.333H46.6667C46.6667 374.171 127.337 456.667 238.333 456.667V443.333Z" fill="#2E51A2"/>
<path d="M380.32 336.437H325.276V269.831H265.08C265.164 280.89 267.049 292.075 270.735 303.385C274.505 314.612 279.658 325.629 286.193 336.437L241.328 366.095C236.385 358.555 231.903 350.637 227.882 342.343C223.944 334.133 220.467 325.378 217.451 316.078C214.519 306.695 212.299 297.604 210.79 288.807C209.366 279.927 208.654 270.837 208.654 261.537C208.654 242.351 211.754 223.92 217.954 206.242C224.237 188.564 233.746 173.358 246.481 160.624C255.697 151.408 265.625 144.286 276.265 139.26C286.989 134.149 298.131 130.714 309.693 128.955C321.339 127.112 334.702 126.19 349.782 126.19H376.801L389.62 173.568H346.389C328.46 173.568 314.301 176.165 303.912 181.359C293.524 186.554 286.235 192.376 282.046 198.827C277.857 205.279 274.003 213.154 270.484 222.453H325.276V179.977H380.32V336.437Z" fill="#2E51A2"/>
<mask id="mask0_20_17" style="mask-type:alpha" maskUnits="userSpaceOnUse" x="-475" y="122" width="824" height="245">
<path d="M-408.517 175.905V232.175H-396.631C-386.603 232.175 -378.679 229.389 -372.86 223.818C-367.042 218.247 -364.132 210.571 -364.132 200.79C-364.132 184.2 -373.294 175.905 -391.617 175.905H-408.517ZM-389.946 122.606C-359.366 122.606 -336.276 129.292 -320.676 142.663C-305.076 156.034 -297.277 175.843 -297.277 202.09C-297.277 228.213 -305.324 248.765 -321.419 263.746C-337.638 278.602 -360.48 286.031 -389.946 286.031H-408.517V367H-474.629V122.606H-389.946ZM-98.2371 367H-258.319V122.606H-192.206V313.701H-98.2371V367ZM85.8123 313.144V367H-59.2268V122.606H85.8123V175.719H6.88574V214.161H80.0553V267.088H6.88574V313.144H85.8123ZM265.612 247.217L348.81 367H272.484L224.942 290.673L177.772 367H103.117L184.086 242.018L107.945 122.606H181.115L225.128 198.19L267.655 122.606H343.053L265.612 247.217Z" fill="white"/>
</mask>
<g mask="url(#mask0_20_17)">
<path d="M104.371 110.562H224.902C224.902 208.539 224.902 300.976 224.902 374.583H104.371V110.562Z" fill="#EBAF00"/>
<path d="M252.995 246.498L224.901 246.498L224.888 196.93L252.995 246.498Z" fill="#EBAF00"/>
<path d="M224.901 289.998L223.995 246.498L252.995 246.498L224.901 289.998Z" fill="#EBAF00"/>
</g>
</g>
<defs>
<clipPath id="clip0_20_17">
<rect width="500" height="500" fill="white"/>
</clipPath>
</defs>
</svg>
